<?xml version="1.0" encoding="UTF-8" standalone="no"?>
<!DOCTYPE svg PUBLIC "-//W3C//DTD SVG 1.1//EN"
 "http://www.w3.org/Graphics/SVG/1.1/DTD/svg11.dtd">
<!-- Generated by graphviz version 2.43.0 (0)
 -->
<!-- Title: %3 Pages: 1 -->
<svg width="1054pt" height="305pt"
 viewBox="0.00 0.00 1053.98 305.00" xmlns="http://www.w3.org/2000/svg" xmlns:xlink="http://www.w3.org/1999/xlink">
<g id="graph0" class="graph" transform="scale(1 1) rotate(0) translate(4 301)">
<title>%3</title>
<polygon fill="white" stroke="transparent" points="-4,4 -4,-301 1049.98,-301 1049.98,4 -4,4"/>
<!-- 0 -->
<g id="node1" class="node">
<title>0</title>
<ellipse fill="none" stroke="black" cx="398.99" cy="-279" rx="176.57" ry="18"/>
<text text-anchor="middle" x="398.99" y="-275.3" font-family="Times,serif" font-size="14.00">AverageRainingDays&lt;0.324999988</text>
</g>
<!-- 1 -->
<g id="node2" class="node">
<title>1</title>
<ellipse fill="none" stroke="black" cx="242.99" cy="-192" rx="107.48" ry="18"/>
<text text-anchor="middle" x="242.99" y="-188.3" font-family="Times,serif" font-size="14.00">osmia&lt;0.314999998</text>
</g>
<!-- 0&#45;&gt;1 -->
<g id="edge1" class="edge">
<title>0&#45;&gt;1</title>
<path fill="none" stroke="#0000ff" d="M368.17,-261.21C343.47,-247.75 308.65,-228.78 282.01,-214.26"/>
<polygon fill="#0000ff" stroke="#0000ff" points="283.41,-211.04 272.95,-209.33 280.06,-217.18 283.41,-211.04"/>
<text text-anchor="middle" x="375.49" y="-231.8" font-family="Times,serif" font-size="14.00">yes, missing</text>
</g>
<!-- 2 -->
<g id="node3" class="node">
<title>2</title>
<ellipse fill="none" stroke="black" cx="554.99" cy="-192" rx="187.37" ry="18"/>
<text text-anchor="middle" x="554.99" y="-188.3" font-family="Times,serif" font-size="14.00">AverageOfUpperTRange&lt;75.4499969</text>
</g>
<!-- 0&#45;&gt;2 -->
<g id="edge2" class="edge">
<title>0&#45;&gt;2</title>
<path fill="none" stroke="#ff0000" d="M429.81,-261.21C454.28,-247.88 488.66,-229.14 515.2,-214.68"/>
<polygon fill="#ff0000" stroke="#ff0000" points="517.13,-217.62 524.24,-209.76 513.78,-211.47 517.13,-217.62"/>
<text text-anchor="middle" x="495.99" y="-231.8" font-family="Times,serif" font-size="14.00">no</text>
</g>
<!-- 3 -->
<g id="node4" class="node">
<title>3</title>
<ellipse fill="none" stroke="black" cx="90.99" cy="-105" rx="90.98" ry="18"/>
<text text-anchor="middle" x="90.99" y="-101.3" font-family="Times,serif" font-size="14.00">leaf=499.471741</text>
</g>
<!-- 1&#45;&gt;3 -->
<g id="edge3" class="edge">
<title>1&#45;&gt;3</title>
<path fill="none" stroke="#0000ff" d="M208.71,-174.91C196.94,-169.18 183.78,-162.52 171.99,-156 156.19,-147.25 139.11,-136.86 124.73,-127.82"/>
<polygon fill="#0000ff" stroke="#0000ff" points="126.48,-124.79 116.16,-122.39 122.74,-130.7 126.48,-124.79"/>
<text text-anchor="middle" x="216.49" y="-144.8" font-family="Times,serif" font-size="14.00">yes, missing</text>
</g>
<!-- 4 -->
<g id="node5" class="node">
<title>4</title>
<ellipse fill="none" stroke="black" cx="290.99" cy="-105" rx="90.98" ry="18"/>
<text text-anchor="middle" x="290.99" y="-101.3" font-family="Times,serif" font-size="14.00">leaf=691.468567</text>
</g>
<!-- 1&#45;&gt;4 -->
<g id="edge4" class="edge">
<title>1&#45;&gt;4</title>
<path fill="none" stroke="#ff0000" d="M252.71,-173.8C259.47,-161.82 268.62,-145.62 276.28,-132.06"/>
<polygon fill="#ff0000" stroke="#ff0000" points="279.42,-133.6 281.29,-123.18 273.33,-130.16 279.42,-133.6"/>
<text text-anchor="middle" x="278.99" y="-144.8" font-family="Times,serif" font-size="14.00">no</text>
</g>
<!-- 5 -->
<g id="node6" class="node">
<title>5</title>
<ellipse fill="none" stroke="black" cx="530.99" cy="-105" rx="107.48" ry="18"/>
<text text-anchor="middle" x="530.99" y="-101.3" font-family="Times,serif" font-size="14.00">osmia&lt;0.314999998</text>
</g>
<!-- 2&#45;&gt;5 -->
<g id="edge5" class="edge">
<title>2&#45;&gt;5</title>
<path fill="none" stroke="#0000ff" d="M550.14,-173.8C546.82,-162.05 542.35,-146.24 538.57,-132.84"/>
<polygon fill="#0000ff" stroke="#0000ff" points="541.93,-131.85 535.84,-123.18 535.19,-133.75 541.93,-131.85"/>
<text text-anchor="middle" x="589.49" y="-144.8" font-family="Times,serif" font-size="14.00">yes, missing</text>
</g>
<!-- 6 -->
<g id="node7" class="node">
<title>6</title>
<ellipse fill="none" stroke="black" cx="762.99" cy="-105" rx="107.48" ry="18"/>
<text text-anchor="middle" x="762.99" y="-101.3" font-family="Times,serif" font-size="14.00">osmia&lt;0.314999998</text>
</g>
<!-- 2&#45;&gt;6 -->
<g id="edge6" class="edge">
<title>2&#45;&gt;6</title>
<path fill="none" stroke="#ff0000" d="M595.59,-174.41C629.78,-160.44 678.74,-140.43 714.89,-125.66"/>
<polygon fill="#ff0000" stroke="#ff0000" points="716.32,-128.85 724.25,-121.83 713.67,-122.37 716.32,-128.85"/>
<text text-anchor="middle" x="680.99" y="-144.8" font-family="Times,serif" font-size="14.00">no</text>
</g>
<!-- 7 -->
<g id="node8" class="node">
<title>7</title>
<ellipse fill="none" stroke="black" cx="338.99" cy="-18" rx="90.98" ry="18"/>
<text text-anchor="middle" x="338.99" y="-14.3" font-family="Times,serif" font-size="14.00">leaf=393.776978</text>
</g>
<!-- 5&#45;&gt;7 -->
<g id="edge7" class="edge">
<title>5&#45;&gt;7</title>
<path fill="none" stroke="#0000ff" d="M489.06,-88.28C474.1,-82.47 457.2,-75.67 441.99,-69 421.12,-59.85 398.29,-48.87 379.44,-39.53"/>
<polygon fill="#0000ff" stroke="#0000ff" points="380.77,-36.28 370.25,-34.95 377.64,-42.55 380.77,-36.28"/>
<text text-anchor="middle" x="486.49" y="-57.8" font-family="Times,serif" font-size="14.00">yes, missing</text>
</g>
<!-- 8 -->
<g id="node9" class="node">
<title>8</title>
<ellipse fill="none" stroke="black" cx="538.99" cy="-18" rx="90.98" ry="18"/>
<text text-anchor="middle" x="538.99" y="-14.3" font-family="Times,serif" font-size="14.00">leaf=571.964355</text>
</g>
<!-- 5&#45;&gt;8 -->
<g id="edge8" class="edge">
<title>5&#45;&gt;8</title>
<path fill="none" stroke="#ff0000" d="M532.61,-86.8C533.71,-75.16 535.18,-59.55 536.43,-46.24"/>
<polygon fill="#ff0000" stroke="#ff0000" points="539.92,-46.46 537.38,-36.18 532.95,-45.8 539.92,-46.46"/>
<text text-anchor="middle" x="544.99" y="-57.8" font-family="Times,serif" font-size="14.00">no</text>
</g>
<!-- 9 -->
<g id="node10" class="node">
<title>9</title>
<ellipse fill="none" stroke="black" cx="754.99" cy="-18" rx="90.98" ry="18"/>
<text text-anchor="middle" x="754.99" y="-14.3" font-family="Times,serif" font-size="14.00">leaf=246.328003</text>
</g>
<!-- 6&#45;&gt;9 -->
<g id="edge9" class="edge">
<title>6&#45;&gt;9</title>
<path fill="none" stroke="#0000ff" d="M761.37,-86.8C760.28,-75.16 758.81,-59.55 757.56,-46.24"/>
<polygon fill="#0000ff" stroke="#0000ff" points="761.03,-45.8 756.61,-36.18 754.06,-46.46 761.03,-45.8"/>
<text text-anchor="middle" x="804.49" y="-57.8" font-family="Times,serif" font-size="14.00">yes, missing</text>
</g>
<!-- 10 -->
<g id="node11" class="node">
<title>10</title>
<ellipse fill="none" stroke="black" cx="954.99" cy="-18" rx="90.98" ry="18"/>
<text text-anchor="middle" x="954.99" y="-14.3" font-family="Times,serif" font-size="14.00">leaf=420.308655</text>
</g>
<!-- 6&#45;&gt;10 -->
<g id="edge10" class="edge">
<title>6&#45;&gt;10</title>
<path fill="none" stroke="#ff0000" d="M805.42,-88.35C820.55,-82.55 837.64,-75.73 852.99,-69 873.7,-59.92 896.31,-48.95 914.97,-39.59"/>
<polygon fill="#ff0000" stroke="#ff0000" points="916.71,-42.64 924.06,-35.01 913.56,-36.39 916.71,-42.64"/>
<text text-anchor="middle" x="892.99" y="-57.8" font-family="Times,serif" font-size="14.00">no</text>
</g>
</g>
</svg>
