<?xml version="1.0" encoding="UTF-8" standalone="no"?>
<!DOCTYPE svg PUBLIC "-//W3C//DTD SVG 1.1//EN"
 "http://www.w3.org/Graphics/SVG/1.1/DTD/svg11.dtd">
<!-- Generated by graphviz version 2.43.0 (0)
 -->
<!-- Title: %3 Pages: 1 -->
<svg width="1186pt" height="392pt"
 viewBox="0.00 0.00 1185.98 392.00" xmlns="http://www.w3.org/2000/svg" xmlns:xlink="http://www.w3.org/1999/xlink">
<g id="graph0" class="graph" transform="scale(1 1) rotate(0) translate(4 388)">
<title>%3</title>
<polygon fill="white" stroke="transparent" points="-4,4 -4,-388 1181.98,-388 1181.98,4 -4,4"/>
<!-- 0 -->
<g id="node1" class="node">
<title>0</title>
<ellipse fill="none" stroke="black" cx="446.99" cy="-366" rx="176.57" ry="18"/>
<text text-anchor="middle" x="446.99" y="-362.3" font-family="Times,serif" font-size="14.00">AverageRainingDays&lt;0.324999988</text>
</g>
<!-- 1 -->
<g id="node2" class="node">
<title>1</title>
<ellipse fill="none" stroke="black" cx="290.99" cy="-279" rx="107.48" ry="18"/>
<text text-anchor="middle" x="290.99" y="-275.3" font-family="Times,serif" font-size="14.00">osmia&lt;0.314999998</text>
</g>
<!-- 0&#45;&gt;1 -->
<g id="edge1" class="edge">
<title>0&#45;&gt;1</title>
<path fill="none" stroke="#0000ff" d="M416.17,-348.21C391.47,-334.75 356.65,-315.78 330.01,-301.26"/>
<polygon fill="#0000ff" stroke="#0000ff" points="331.41,-298.04 320.95,-296.33 328.06,-304.18 331.41,-298.04"/>
<text text-anchor="middle" x="423.49" y="-318.8" font-family="Times,serif" font-size="14.00">yes, missing</text>
</g>
<!-- 2 -->
<g id="node3" class="node">
<title>2</title>
<ellipse fill="none" stroke="black" cx="623.99" cy="-279" rx="187.37" ry="18"/>
<text text-anchor="middle" x="623.99" y="-275.3" font-family="Times,serif" font-size="14.00">AverageOfUpperTRange&lt;75.4499969</text>
</g>
<!-- 0&#45;&gt;2 -->
<g id="edge2" class="edge">
<title>0&#45;&gt;2</title>
<path fill="none" stroke="#ff0000" d="M481.96,-348.21C510.08,-334.7 549.75,-315.65 580.03,-301.11"/>
<polygon fill="#ff0000" stroke="#ff0000" points="581.6,-304.24 589.1,-296.76 578.57,-297.93 581.6,-304.24"/>
<text text-anchor="middle" x="555.99" y="-318.8" font-family="Times,serif" font-size="14.00">no</text>
</g>
<!-- 3 -->
<g id="node4" class="node">
<title>3</title>
<ellipse fill="none" stroke="black" cx="98.99" cy="-192" rx="85.29" ry="18"/>
<text text-anchor="middle" x="98.99" y="-188.3" font-family="Times,serif" font-size="14.00">leaf=1540.5061</text>
</g>
<!-- 1&#45;&gt;3 -->
<g id="edge3" class="edge">
<title>1&#45;&gt;3</title>
<path fill="none" stroke="#0000ff" d="M247.07,-262.58C231.43,-256.79 213.79,-249.94 197.99,-243 177.72,-234.1 155.7,-223.11 137.57,-213.7"/>
<polygon fill="#0000ff" stroke="#0000ff" points="138.97,-210.48 128.48,-208.95 135.72,-216.68 138.97,-210.48"/>
<text text-anchor="middle" x="242.49" y="-231.8" font-family="Times,serif" font-size="14.00">yes, missing</text>
</g>
<!-- 4 -->
<g id="node5" class="node">
<title>4</title>
<ellipse fill="none" stroke="black" cx="290.99" cy="-192" rx="89.08" ry="18"/>
<text text-anchor="middle" x="290.99" y="-188.3" font-family="Times,serif" font-size="14.00">honeybee&lt;0.375</text>
</g>
<!-- 1&#45;&gt;4 -->
<g id="edge4" class="edge">
<title>1&#45;&gt;4</title>
<path fill="none" stroke="#ff0000" d="M290.99,-260.8C290.99,-249.16 290.99,-233.55 290.99,-220.24"/>
<polygon fill="#ff0000" stroke="#ff0000" points="294.49,-220.18 290.99,-210.18 287.49,-220.18 294.49,-220.18"/>
<text text-anchor="middle" x="299.99" y="-231.8" font-family="Times,serif" font-size="14.00">no</text>
</g>
<!-- 5 -->
<g id="node8" class="node">
<title>5</title>
<ellipse fill="none" stroke="black" cx="623.99" cy="-192" rx="107.48" ry="18"/>
<text text-anchor="middle" x="623.99" y="-188.3" font-family="Times,serif" font-size="14.00">osmia&lt;0.314999998</text>
</g>
<!-- 2&#45;&gt;5 -->
<g id="edge7" class="edge">
<title>2&#45;&gt;5</title>
<path fill="none" stroke="#0000ff" d="M623.99,-260.8C623.99,-249.16 623.99,-233.55 623.99,-220.24"/>
<polygon fill="#0000ff" stroke="#0000ff" points="627.49,-220.18 623.99,-210.18 620.49,-220.18 627.49,-220.18"/>
<text text-anchor="middle" x="668.49" y="-231.8" font-family="Times,serif" font-size="14.00">yes, missing</text>
</g>
<!-- 6 -->
<g id="node9" class="node">
<title>6</title>
<ellipse fill="none" stroke="black" cx="886.99" cy="-192" rx="107.48" ry="18"/>
<text text-anchor="middle" x="886.99" y="-188.3" font-family="Times,serif" font-size="14.00">osmia&lt;0.314999998</text>
</g>
<!-- 2&#45;&gt;6 -->
<g id="edge8" class="edge">
<title>2&#45;&gt;6</title>
<path fill="none" stroke="#ff0000" d="M674.7,-261.61C719.29,-247.2 784.13,-226.25 830.4,-211.29"/>
<polygon fill="#ff0000" stroke="#ff0000" points="831.53,-214.6 839.97,-208.2 829.38,-207.94 831.53,-214.6"/>
<text text-anchor="middle" x="780.99" y="-231.8" font-family="Times,serif" font-size="14.00">no</text>
</g>
<!-- 7 -->
<g id="node6" class="node">
<title>7</title>
<ellipse fill="none" stroke="black" cx="90.99" cy="-105" rx="90.98" ry="18"/>
<text text-anchor="middle" x="90.99" y="-101.3" font-family="Times,serif" font-size="14.00">leaf=2221.17847</text>
</g>
<!-- 4&#45;&gt;7 -->
<g id="edge5" class="edge">
<title>4&#45;&gt;7</title>
<path fill="none" stroke="#0000ff" d="M249.06,-176C232.98,-170.04 214.53,-162.96 197.99,-156 176.23,-146.84 152.4,-135.8 132.76,-126.43"/>
<polygon fill="#0000ff" stroke="#0000ff" points="134.01,-123.15 123.48,-121.98 130.98,-129.46 134.01,-123.15"/>
<text text-anchor="middle" x="242.49" y="-144.8" font-family="Times,serif" font-size="14.00">yes, missing</text>
</g>
<!-- 8 -->
<g id="node7" class="node">
<title>8</title>
<ellipse fill="none" stroke="black" cx="290.99" cy="-105" rx="90.98" ry="18"/>
<text text-anchor="middle" x="290.99" y="-101.3" font-family="Times,serif" font-size="14.00">leaf=1874.48572</text>
</g>
<!-- 4&#45;&gt;8 -->
<g id="edge6" class="edge">
<title>4&#45;&gt;8</title>
<path fill="none" stroke="#ff0000" d="M290.99,-173.8C290.99,-162.16 290.99,-146.55 290.99,-133.24"/>
<polygon fill="#ff0000" stroke="#ff0000" points="294.49,-133.18 290.99,-123.18 287.49,-133.18 294.49,-133.18"/>
<text text-anchor="middle" x="299.99" y="-144.8" font-family="Times,serif" font-size="14.00">no</text>
</g>
<!-- 9 -->
<g id="node10" class="node">
<title>9</title>
<ellipse fill="none" stroke="black" cx="490.99" cy="-105" rx="90.98" ry="18"/>
<text text-anchor="middle" x="490.99" y="-101.3" font-family="Times,serif" font-size="14.00">leaf=1168.16296</text>
</g>
<!-- 5&#45;&gt;9 -->
<g id="edge9" class="edge">
<title>5&#45;&gt;9</title>
<path fill="none" stroke="#0000ff" d="M592.28,-174.69C581.84,-169.04 570.27,-162.5 559.99,-156 546.81,-147.67 532.79,-137.72 520.85,-128.9"/>
<polygon fill="#0000ff" stroke="#0000ff" points="522.67,-125.89 512.56,-122.71 518.48,-131.5 522.67,-125.89"/>
<text text-anchor="middle" x="604.49" y="-144.8" font-family="Times,serif" font-size="14.00">yes, missing</text>
</g>
<!-- 10 -->
<g id="node11" class="node">
<title>10</title>
<ellipse fill="none" stroke="black" cx="688.99" cy="-105" rx="89.08" ry="18"/>
<text text-anchor="middle" x="688.99" y="-101.3" font-family="Times,serif" font-size="14.00">honeybee&lt;0.375</text>
</g>
<!-- 5&#45;&gt;10 -->
<g id="edge10" class="edge">
<title>5&#45;&gt;10</title>
<path fill="none" stroke="#ff0000" d="M637.15,-173.8C646.55,-161.51 659.34,-144.77 669.87,-131.01"/>
<polygon fill="#ff0000" stroke="#ff0000" points="672.79,-132.96 676.08,-122.89 667.22,-128.7 672.79,-132.96"/>
<text text-anchor="middle" x="669.99" y="-144.8" font-family="Times,serif" font-size="14.00">no</text>
</g>
<!-- 11 -->
<g id="node14" class="node">
<title>11</title>
<ellipse fill="none" stroke="black" cx="886.99" cy="-105" rx="90.98" ry="18"/>
<text text-anchor="middle" x="886.99" y="-101.3" font-family="Times,serif" font-size="14.00">leaf=753.743774</text>
</g>
<!-- 6&#45;&gt;11 -->
<g id="edge13" class="edge">
<title>6&#45;&gt;11</title>
<path fill="none" stroke="#0000ff" d="M886.99,-173.8C886.99,-162.16 886.99,-146.55 886.99,-133.24"/>
<polygon fill="#0000ff" stroke="#0000ff" points="890.49,-133.18 886.99,-123.18 883.49,-133.18 890.49,-133.18"/>
<text text-anchor="middle" x="931.49" y="-144.8" font-family="Times,serif" font-size="14.00">yes, missing</text>
</g>
<!-- 12 -->
<g id="node15" class="node">
<title>12</title>
<ellipse fill="none" stroke="black" cx="1086.99" cy="-105" rx="90.98" ry="18"/>
<text text-anchor="middle" x="1086.99" y="-101.3" font-family="Times,serif" font-size="14.00">leaf=1285.32861</text>
</g>
<!-- 6&#45;&gt;12 -->
<g id="edge14" class="edge">
<title>6&#45;&gt;12</title>
<path fill="none" stroke="#ff0000" d="M930.33,-175.48C946.07,-169.64 963.93,-162.76 979.99,-156 1001.75,-146.84 1025.59,-135.8 1045.23,-126.43"/>
<polygon fill="#ff0000" stroke="#ff0000" points="1047,-129.46 1054.5,-121.98 1043.97,-123.15 1047,-129.46"/>
<text text-anchor="middle" x="1020.99" y="-144.8" font-family="Times,serif" font-size="14.00">no</text>
</g>
<!-- 13 -->
<g id="node12" class="node">
<title>13</title>
<ellipse fill="none" stroke="black" cx="591.99" cy="-18" rx="90.98" ry="18"/>
<text text-anchor="middle" x="591.99" y="-14.3" font-family="Times,serif" font-size="14.00">leaf=1870.01624</text>
</g>
<!-- 10&#45;&gt;13 -->
<g id="edge11" class="edge">
<title>10&#45;&gt;13</title>
<path fill="none" stroke="#0000ff" d="M669.83,-87.21C655.21,-74.4 634.91,-56.61 618.7,-42.4"/>
<polygon fill="#0000ff" stroke="#0000ff" points="620.94,-39.72 611.12,-35.76 616.33,-44.98 620.94,-39.72"/>
<text text-anchor="middle" x="691.49" y="-57.8" font-family="Times,serif" font-size="14.00">yes, missing</text>
</g>
<!-- 14 -->
<g id="node13" class="node">
<title>14</title>
<ellipse fill="none" stroke="black" cx="785.99" cy="-18" rx="85.29" ry="18"/>
<text text-anchor="middle" x="785.99" y="-14.3" font-family="Times,serif" font-size="14.00">leaf=1531.6189</text>
</g>
<!-- 10&#45;&gt;14 -->
<g id="edge12" class="edge">
<title>10&#45;&gt;14</title>
<path fill="none" stroke="#ff0000" d="M715.25,-87.64C723.46,-82.09 732.36,-75.61 739.99,-69 748.77,-61.39 757.61,-52.23 765.15,-43.84"/>
<polygon fill="#ff0000" stroke="#ff0000" points="767.98,-45.93 771.95,-36.11 762.72,-41.31 767.98,-45.93"/>
<text text-anchor="middle" x="763.99" y="-57.8" font-family="Times,serif" font-size="14.00">no</text>
</g>
</g>
</svg>
